<mxfile host="app.diagrams.net" modified="2024-05-31T03:34:08.903Z" agent="Mozilla/5.0 (Windows NT 10.0; Win64; x64) AppleWebKit/537.36 (KHTML, like Gecko) Chrome/125.0.0.0 Safari/537.36" etag="CXgY_0dwuec4oI-4AqE9" version="24.4.10" type="device">
  <diagram name="Page-1" id="e7e014a7-5840-1c2e-5031-d8a46d1fe8dd">
    <mxGraphModel dx="913" dy="484" grid="1" gridSize="10" guides="1" tooltips="1" connect="1" arrows="1" fold="1" page="1" pageScale="1" pageWidth="1169" pageHeight="826" background="none" math="0" shadow="0">
      <root>
        <mxCell id="0" />
        <mxCell id="1" parent="0" />
        <mxCell id="2" value="Mahasiswa" style="swimlane;whiteSpace=wrap" parent="1" vertex="1">
          <mxGeometry x="164.5" y="170" width="165.5" height="430" as="geometry" />
        </mxCell>
        <mxCell id="5" value="" style="ellipse;shape=startState;fillColor=#000000;strokeColor=none;strokeWidth=0;" parent="2" vertex="1">
          <mxGeometry x="67.75" y="40" width="30" height="30" as="geometry" />
        </mxCell>
        <mxCell id="5HclzKBmLzZX2XeezlWb-41" value="Buat Pengaduan" style="rounded=1;whiteSpace=wrap;html=1;" vertex="1" parent="2">
          <mxGeometry x="22.75" y="110" width="120" height="38" as="geometry" />
        </mxCell>
        <mxCell id="5HclzKBmLzZX2XeezlWb-48" value="Melihat Tanggapan" style="rounded=1;whiteSpace=wrap;html=1;" vertex="1" parent="2">
          <mxGeometry x="22.75" y="243" width="120" height="38" as="geometry" />
        </mxCell>
        <mxCell id="38" value="" style="ellipse;shape=endState;fillColor=#000000;strokeColor=#000000;" parent="2" vertex="1">
          <mxGeometry x="67.75" y="340" width="30" height="30" as="geometry" />
        </mxCell>
        <mxCell id="5HclzKBmLzZX2XeezlWb-49" value="" style="endArrow=classic;html=1;rounded=0;entryX=0.5;entryY=0;entryDx=0;entryDy=0;" edge="1" parent="2" source="5" target="5HclzKBmLzZX2XeezlWb-41">
          <mxGeometry width="50" height="50" relative="1" as="geometry">
            <mxPoint x="95.5" y="80" as="sourcePoint" />
            <mxPoint x="145.5" y="30" as="targetPoint" />
          </mxGeometry>
        </mxCell>
        <mxCell id="5HclzKBmLzZX2XeezlWb-56" value="" style="endArrow=classic;html=1;rounded=0;exitX=0.5;exitY=1;exitDx=0;exitDy=0;entryX=0.5;entryY=0;entryDx=0;entryDy=0;" edge="1" parent="2" source="5HclzKBmLzZX2XeezlWb-48" target="38">
          <mxGeometry width="50" height="50" relative="1" as="geometry">
            <mxPoint x="240.5" y="275" as="sourcePoint" />
            <mxPoint x="152.5" y="273" as="targetPoint" />
          </mxGeometry>
        </mxCell>
        <mxCell id="3" value="Sistem Informasi Layanan Pengaduan" style="swimlane;whiteSpace=wrap" parent="1" vertex="1">
          <mxGeometry x="330" y="170" width="250" height="430" as="geometry" />
        </mxCell>
        <mxCell id="5HclzKBmLzZX2XeezlWb-42" value="Menampilkan Pengaduan" style="rounded=1;whiteSpace=wrap;html=1;" vertex="1" parent="3">
          <mxGeometry x="65" y="110" width="120" height="38" as="geometry" />
        </mxCell>
        <mxCell id="5HclzKBmLzZX2XeezlWb-47" value="Menampilkan&amp;nbsp;&lt;div&gt;Tanggapan Pengaduan&lt;/div&gt;" style="rounded=1;whiteSpace=wrap;html=1;" vertex="1" parent="3">
          <mxGeometry x="65" y="240" width="120" height="50" as="geometry" />
        </mxCell>
        <mxCell id="4" value="Admin / Petugas" style="swimlane;whiteSpace=wrap" parent="1" vertex="1">
          <mxGeometry x="580" y="170" width="250" height="430" as="geometry" />
        </mxCell>
        <mxCell id="5HclzKBmLzZX2XeezlWb-44" value="Mengecek Pengaduan" style="rhombus;whiteSpace=wrap;html=1;" vertex="1" parent="4">
          <mxGeometry x="60" y="90" width="120" height="80" as="geometry" />
        </mxCell>
        <mxCell id="5HclzKBmLzZX2XeezlWb-45" value="Menanggapi Pengaduan" style="rounded=1;whiteSpace=wrap;html=1;" vertex="1" parent="4">
          <mxGeometry x="60" y="246" width="120" height="38" as="geometry" />
        </mxCell>
        <mxCell id="5HclzKBmLzZX2XeezlWb-46" value="Hapus&lt;div&gt;Pengaduan&lt;/div&gt;" style="rounded=1;whiteSpace=wrap;html=1;" vertex="1" parent="4">
          <mxGeometry x="150" y="336" width="84.5" height="38" as="geometry" />
        </mxCell>
        <mxCell id="5HclzKBmLzZX2XeezlWb-52" value="" style="endArrow=classic;html=1;rounded=0;exitX=0.5;exitY=1;exitDx=0;exitDy=0;entryX=0.5;entryY=0;entryDx=0;entryDy=0;" edge="1" parent="4" source="5HclzKBmLzZX2XeezlWb-44" target="5HclzKBmLzZX2XeezlWb-45">
          <mxGeometry width="50" height="50" relative="1" as="geometry">
            <mxPoint x="-55" y="139" as="sourcePoint" />
            <mxPoint x="70" y="140" as="targetPoint" />
          </mxGeometry>
        </mxCell>
        <mxCell id="5HclzKBmLzZX2XeezlWb-53" value="" style="endArrow=classic;html=1;rounded=0;exitX=1;exitY=0.5;exitDx=0;exitDy=0;entryX=0.5;entryY=0;entryDx=0;entryDy=0;" edge="1" parent="4" source="5HclzKBmLzZX2XeezlWb-44" target="5HclzKBmLzZX2XeezlWb-46">
          <mxGeometry width="50" height="50" relative="1" as="geometry">
            <mxPoint x="130" y="180" as="sourcePoint" />
            <mxPoint x="130" y="253" as="targetPoint" />
            <Array as="points">
              <mxPoint x="192" y="130" />
            </Array>
          </mxGeometry>
        </mxCell>
        <mxCell id="5HclzKBmLzZX2XeezlWb-58" value="Valid" style="text;html=1;align=center;verticalAlign=middle;whiteSpace=wrap;rounded=0;" vertex="1" parent="4">
          <mxGeometry x="70" y="190" width="60" height="30" as="geometry" />
        </mxCell>
        <mxCell id="5HclzKBmLzZX2XeezlWb-59" value="Tidak&lt;div&gt;Valid&lt;/div&gt;" style="text;html=1;align=center;verticalAlign=middle;whiteSpace=wrap;rounded=0;" vertex="1" parent="4">
          <mxGeometry x="180" y="228" width="60" height="30" as="geometry" />
        </mxCell>
        <mxCell id="5HclzKBmLzZX2XeezlWb-50" value="" style="endArrow=classic;html=1;rounded=0;exitX=1;exitY=0.5;exitDx=0;exitDy=0;entryX=0.042;entryY=0.526;entryDx=0;entryDy=0;entryPerimeter=0;" edge="1" parent="1" source="5HclzKBmLzZX2XeezlWb-41" target="5HclzKBmLzZX2XeezlWb-42">
          <mxGeometry width="50" height="50" relative="1" as="geometry">
            <mxPoint x="257.5" y="250" as="sourcePoint" />
            <mxPoint x="257.5" y="290" as="targetPoint" />
          </mxGeometry>
        </mxCell>
        <mxCell id="5HclzKBmLzZX2XeezlWb-51" value="" style="endArrow=classic;html=1;rounded=0;exitX=1;exitY=0.5;exitDx=0;exitDy=0;entryX=0;entryY=0.5;entryDx=0;entryDy=0;" edge="1" parent="1" source="5HclzKBmLzZX2XeezlWb-42" target="5HclzKBmLzZX2XeezlWb-44">
          <mxGeometry width="50" height="50" relative="1" as="geometry">
            <mxPoint x="317" y="309" as="sourcePoint" />
            <mxPoint x="410" y="310" as="targetPoint" />
          </mxGeometry>
        </mxCell>
        <mxCell id="5HclzKBmLzZX2XeezlWb-54" value="" style="endArrow=classic;html=1;rounded=0;exitX=0;exitY=0.5;exitDx=0;exitDy=0;entryX=1;entryY=0.5;entryDx=0;entryDy=0;" edge="1" parent="1" source="5HclzKBmLzZX2XeezlWb-45" target="5HclzKBmLzZX2XeezlWb-47">
          <mxGeometry width="50" height="50" relative="1" as="geometry">
            <mxPoint x="710" y="350" as="sourcePoint" />
            <mxPoint x="710" y="423" as="targetPoint" />
          </mxGeometry>
        </mxCell>
        <mxCell id="5HclzKBmLzZX2XeezlWb-55" value="" style="endArrow=classic;html=1;rounded=0;exitX=0;exitY=0.5;exitDx=0;exitDy=0;" edge="1" parent="1" source="5HclzKBmLzZX2XeezlWb-47" target="5HclzKBmLzZX2XeezlWb-48">
          <mxGeometry width="50" height="50" relative="1" as="geometry">
            <mxPoint x="650" y="442" as="sourcePoint" />
            <mxPoint x="525" y="445" as="targetPoint" />
          </mxGeometry>
        </mxCell>
        <mxCell id="5HclzKBmLzZX2XeezlWb-57" value="" style="endArrow=classic;html=1;rounded=0;exitX=0;exitY=0.5;exitDx=0;exitDy=0;entryX=1;entryY=0.5;entryDx=0;entryDy=0;" edge="1" parent="1" source="5HclzKBmLzZX2XeezlWb-46" target="38">
          <mxGeometry width="50" height="50" relative="1" as="geometry">
            <mxPoint x="405" y="445" as="sourcePoint" />
            <mxPoint x="317" y="443" as="targetPoint" />
          </mxGeometry>
        </mxCell>
      </root>
    </mxGraphModel>
  </diagram>
</mxfile>
